<svg width="42" height="16" viewBox="0 0 42 16" fill="none" xmlns="http://www.w3.org/2000/svg">
<path d="M32.2359 7.22772L34.2701 9.55015L37.7295 0.873199H41.7561L35.7446 15.1268H32.7956L28.2094 7.22772H32.2359Z" fill="#E65C00"/>
<path d="M19.8327 7.14932H27.1864C27.1864 7.90548 27.1549 8.59233 27.0918 9.20986C27.0288 9.8274 26.9028 10.4008 26.7138 10.9301C26.4491 11.6737 26.0899 12.3353 25.6362 12.9151C25.1825 13.4822 24.6469 13.9611 24.0294 14.3518C23.4245 14.7298 22.7565 15.0197 22.0256 15.2213C21.2946 15.423 20.5258 15.5238 19.7193 15.5238C18.6102 15.5238 17.5957 15.3411 16.6757 14.9756C15.7683 14.6101 14.987 14.0997 14.3316 13.4444C13.6763 12.7764 13.1659 11.9825 12.8004 11.0625C12.4349 10.1299 12.2522 9.10274 12.2522 7.9811C12.2522 6.87206 12.4286 5.85755 12.7815 4.93755C13.147 4.00495 13.6574 3.21098 14.3127 2.55564C14.9807 1.9003 15.7809 1.38989 16.7135 1.02441C17.6461 0.658935 18.6858 0.476196 19.8327 0.476196C21.3198 0.476196 22.6242 0.797565 23.7458 1.4403C24.8675 2.08304 25.756 3.07865 26.4113 4.42714L22.8951 5.88275C22.5675 5.10139 22.139 4.54057 21.6097 4.20029C21.093 3.86002 20.5006 3.68988 19.8327 3.68988C19.2782 3.68988 18.7741 3.79701 18.3204 4.01125C17.8667 4.2129 17.476 4.50906 17.1483 4.89974C16.8332 5.27782 16.5812 5.73782 16.3922 6.27974C16.2157 6.82165 16.1275 7.42658 16.1275 8.09452C16.1275 8.69945 16.2031 9.26027 16.3543 9.77698C16.5182 10.2937 16.7576 10.7411 17.0727 11.1192C17.3878 11.4973 17.7784 11.7934 18.2447 12.0077C18.711 12.2093 19.253 12.3101 19.8705 12.3101C20.236 12.3101 20.5888 12.2723 20.9291 12.1967C21.2694 12.1085 21.5719 11.9762 21.8365 11.7997C22.1138 11.6107 22.3406 11.3712 22.5171 11.0814C22.6935 10.7915 22.8132 10.4386 22.8762 10.0227H19.8327V7.14932Z" fill="#E65C00"/>
<path d="M3.94909 7.24386H4.64854C5.37949 7.24386 5.94031 7.09263 6.331 6.79016C6.72168 6.4877 6.91702 6.05291 6.91702 5.48578C6.91702 4.91866 6.72168 4.48387 6.331 4.18141C5.94031 3.87894 5.37949 3.72771 4.64854 3.72771H3.94909V7.24386ZM12.0967 15.1268H7.48414L3.94909 9.64467V15.1268H0.243896V0.873199H6.00963C6.8036 0.873199 7.49675 0.992925 8.08907 1.23238C8.6814 1.45922 9.1666 1.77429 9.54468 2.17758C9.93537 2.58086 10.2252 3.04716 10.4143 3.57648C10.6159 4.10579 10.7167 4.67291 10.7167 5.27784C10.7167 6.36167 10.4521 7.24386 9.92277 7.92441C9.40606 8.59235 8.63729 9.04605 7.61647 9.2855L12.0967 15.1268Z" fill="#E65C00"/>
</svg>
