<svg width="86" height="16" viewBox="0 0 86 16" fill="none" xmlns="http://www.w3.org/2000/svg">
<path d="M75.957 6.77428L77.9911 9.09671L81.4506 0.419754H85.4771L79.4657 14.6734H76.5166L71.9304 6.77428H75.957Z" fill="#E65C00"/>
<path d="M63.5538 6.69586H70.9074C70.9074 7.45202 70.8759 8.13887 70.8129 8.7564C70.7499 9.37393 70.6239 9.94736 70.4348 10.4767C70.1702 11.2202 69.811 11.8819 69.3573 12.4616C68.9036 13.0287 68.368 13.5076 67.7505 13.8983C67.1455 14.2764 66.4776 14.5662 65.7466 14.7679C65.0157 14.9695 64.2469 15.0704 63.4403 15.0704C62.3313 15.0704 61.3168 14.8876 60.3968 14.5221C59.4894 14.1567 58.708 13.6462 58.0527 12.9909C57.3973 12.323 56.8869 11.529 56.5215 10.609C56.156 9.6764 55.9732 8.64928 55.9732 7.52764C55.9732 6.4186 56.1497 5.40409 56.5025 4.48409C56.868 3.55149 57.3784 2.75752 58.0338 2.10218C58.7017 1.44684 59.502 0.936431 60.4346 0.570952C61.3672 0.205474 62.4069 0.0227356 63.5538 0.0227356C65.0409 0.0227356 66.3453 0.344104 67.4669 0.986841C68.5885 1.62958 69.477 2.62519 70.1324 3.97368L66.6162 5.42929C66.2885 4.64792 65.86 4.0871 65.3307 3.74683C64.814 3.40656 64.2217 3.23642 63.5538 3.23642C62.9992 3.23642 62.4951 3.34355 62.0414 3.55779C61.5877 3.75943 61.1971 4.0556 60.8694 4.44628C60.5543 4.82436 60.3023 5.28436 60.1132 5.82628C59.9368 6.36819 59.8486 6.97312 59.8486 7.64106C59.8486 8.24599 59.9242 8.80681 60.0754 9.32352C60.2392 9.84023 60.4787 10.2876 60.7938 10.6657C61.1088 11.0438 61.4995 11.34 61.9658 11.5542C62.4321 11.7558 62.974 11.8567 63.5916 11.8567C63.957 11.8567 64.3099 11.8189 64.6502 11.7432C64.9905 11.655 65.2929 11.5227 65.5576 11.3463C65.8348 11.1572 66.0617 10.9178 66.2381 10.6279C66.4146 10.338 66.5343 9.98516 66.5973 9.56928H63.5538V6.69586Z" fill="#E65C00"/>
<path d="M47.6702 6.79041H48.3696C49.1006 6.79041 49.6614 6.63918 50.0521 6.33672C50.4428 6.03425 50.6381 5.59946 50.6381 5.03234C50.6381 4.46522 50.4428 4.03043 50.0521 3.72796C49.6614 3.4255 49.1006 3.27426 48.3696 3.27426H47.6702V6.79041ZM55.8178 14.6734H51.2052L47.6702 9.19123V14.6734H43.965V0.419754H49.7307C50.5247 0.419754 51.2178 0.53948 51.8101 0.778931C52.4025 1.00578 52.8877 1.32085 53.2658 1.72413C53.6564 2.12742 53.9463 2.59372 54.1353 3.12303C54.337 3.65234 54.4378 4.21947 54.4378 4.82439C54.4378 5.90823 54.1731 6.79042 53.6438 7.47096C53.1271 8.1389 52.3584 8.5926 51.3375 8.83205L55.8178 14.6734Z" fill="#E65C00"/>
<path d="M40.9387 3.54291V14.6832H37.2252V3.54291H34.1749V0.397873H43.989V3.54291H40.9387Z" fill="black"/>
<path d="M31.5913 4.05445C31.1872 3.72605 30.783 3.48607 30.3788 3.3345C29.9746 3.1703 29.5831 3.0882 29.2041 3.0882C28.7242 3.0882 28.3326 3.20188 28.0295 3.42923C27.7263 3.65658 27.5748 3.9534 27.5748 4.31969C27.5748 4.57231 27.6506 4.78071 27.8021 4.94491C27.9537 5.10911 28.1495 5.25436 28.3895 5.38067C28.6421 5.49435 28.9199 5.59539 29.2231 5.68381C29.5388 5.77222 29.8483 5.86695 30.1514 5.968C31.364 6.37218 32.2481 6.9153 32.8039 7.59735C33.3723 8.26678 33.6564 9.14461 33.6564 10.2308C33.6564 10.9634 33.5301 11.6265 33.2775 12.2202C33.0375 12.8138 32.6776 13.3254 32.1976 13.7548C31.7303 14.1716 31.1493 14.4937 30.4546 14.7211C29.7725 14.961 28.9957 15.081 28.1242 15.081C26.318 15.081 24.6445 14.5442 23.1035 13.4706L24.695 10.4771C25.2507 10.9697 25.8002 11.336 26.3433 11.576C26.8864 11.816 27.4232 11.936 27.9537 11.936C28.56 11.936 29.0084 11.7971 29.2989 11.5192C29.602 11.2413 29.7536 10.9255 29.7536 10.5719C29.7536 10.3572 29.7157 10.174 29.6399 10.0224C29.5641 9.85825 29.4378 9.71299 29.261 9.58669C29.0841 9.44775 28.8505 9.32144 28.56 9.20777C28.2821 9.09409 27.9411 8.96778 27.5369 8.82884C27.0569 8.67728 26.5833 8.51308 26.1159 8.33625C25.6612 8.14679 25.2507 7.90049 24.8844 7.59735C24.5308 7.29422 24.2403 6.9153 24.0129 6.46059C23.7982 5.99326 23.6908 5.40593 23.6908 4.69861C23.6908 3.9913 23.8045 3.35345 24.0319 2.78507C24.2719 2.20405 24.6003 1.71146 25.0171 1.30728C25.4465 0.890463 25.9644 0.568381 26.5706 0.341029C27.1895 0.113676 27.8779 0 28.6358 0C29.3431 0 30.082 0.101045 30.8524 0.303136C31.6229 0.492597 32.3618 0.776787 33.0691 1.15571L31.5913 4.05445Z" fill="black"/>
<path d="M21.6388 3.54291H17.2243V5.93011H21.3925V9.07515H17.2243V11.5381H21.6388V14.6832H13.5109V0.397873H21.6388V3.54291Z" fill="black"/>
<path d="M4.67481 11.8034H5.48949C6.42416 11.8034 7.09359 11.6834 7.49777 11.4434C7.90195 11.2034 8.10404 10.8182 8.10404 10.2877C8.10404 9.75721 7.90195 9.37197 7.49777 9.13199C7.09359 8.892 6.42416 8.77201 5.48949 8.77201H4.67481V11.8034ZM4.67481 6.00589H5.35687C6.51889 6.00589 7.09991 5.54487 7.09991 4.62283C7.09991 3.7008 6.51889 3.23978 5.35687 3.23978H4.67481V6.00589ZM0.961395 0.397873H6.49363C7.80722 0.397873 8.80505 0.713639 9.4871 1.34517C10.1692 1.97671 10.5102 2.88612 10.5102 4.0734C10.5102 4.79335 10.3776 5.39331 10.1123 5.87327C9.85971 6.34061 9.46816 6.73847 8.93767 7.06687C9.46816 7.16792 9.91655 7.3258 10.2828 7.54052C10.6618 7.74261 10.9649 7.99523 11.1922 8.29836C11.4322 8.6015 11.6027 8.94253 11.7038 9.32145C11.8048 9.70037 11.8554 10.1046 11.8554 10.534C11.8554 11.2034 11.7354 11.7971 11.4954 12.3149C11.268 12.8328 10.9396 13.2685 10.5102 13.6222C10.0934 13.9759 9.58183 14.2411 8.97556 14.4179C8.36929 14.5948 7.68723 14.6832 6.92939 14.6832H0.961395V0.397873Z" fill="black"/>
</svg>
