<svg width="93" height="24" viewBox="0 0 93 24" fill="none" xmlns="http://www.w3.org/2000/svg">
<rect width="92.0616" height="23" transform="translate(0 0.5)" fill="white"/>
<path d="M78.5926 11.2379L80.6159 13.5478L84.0567 4.9175H88.0616L82.0825 19.0946H79.1493L74.5877 11.2379H78.5926Z" fill="#E65C00"/>
<path d="M66.256 11.1599H73.5702C73.5702 11.912 73.5389 12.5951 73.4762 13.2094C73.4135 13.8236 73.2882 14.3939 73.1001 14.9204C72.8369 15.66 72.4797 16.318 72.0284 16.8946C71.5771 17.4587 71.0444 17.935 70.4302 18.3236C69.8285 18.6997 69.1642 18.988 68.4371 19.1885C67.7101 19.3891 66.9455 19.4894 66.1432 19.4894C65.0401 19.4894 64.0311 19.3076 63.116 18.9441C62.2135 18.5806 61.4363 18.0729 60.7845 17.4211C60.1327 16.7568 59.625 15.9671 59.2615 15.052C58.898 14.1244 58.7162 13.1028 58.7162 11.9872C58.7162 10.8841 58.8917 9.87506 59.2427 8.96C59.6062 8.03242 60.1139 7.24271 60.7657 6.59089C61.4301 5.93907 62.226 5.43141 63.1536 5.06789C64.0812 4.70438 65.1154 4.52262 66.256 4.52262C67.7352 4.52262 69.0325 4.84226 70.1482 5.48155C71.2638 6.12083 72.1475 7.11109 72.7993 8.45234L69.302 9.90013C68.9761 9.12296 68.5499 8.56515 68.0235 8.22671C67.5095 7.88826 66.9204 7.71904 66.256 7.71904C65.7045 7.71904 65.2031 7.82559 64.7518 8.03868C64.3006 8.23924 63.912 8.53381 63.5861 8.9224C63.2727 9.29845 63.022 9.75597 62.834 10.295C62.6585 10.834 62.5708 11.4357 62.5708 12.1C62.5708 12.7017 62.646 13.2595 62.7964 13.7734C62.9593 14.2874 63.1975 14.7324 63.5109 15.1084C63.8243 15.4845 64.2128 15.779 64.6766 15.9921C65.1404 16.1927 65.6794 16.293 66.2936 16.293C66.6572 16.293 67.0081 16.2554 67.3466 16.1802C67.685 16.0924 67.9859 15.9608 68.2491 15.7853C68.5249 15.5973 68.7505 15.3591 68.926 15.0708C69.1015 14.7825 69.2206 14.4315 69.2832 14.0179H66.256V11.1599Z" fill="#E65C00"/>
<path d="M50.4578 11.2539H51.1535C51.8805 11.2539 52.4383 11.1035 52.8269 10.8027C53.2155 10.5018 53.4098 10.0694 53.4098 9.5053C53.4098 8.94122 53.2155 8.50877 52.8269 8.20793C52.4383 7.90709 51.8805 7.75667 51.1535 7.75667H50.4578V11.2539ZM58.5617 19.0946H53.9739L50.4578 13.6418V19.0946H46.7725V4.9175H52.5073C53.297 4.9175 53.9864 5.03658 54.5755 5.27474C55.1647 5.50037 55.6473 5.81375 56.0233 6.21487C56.4119 6.61598 56.7002 7.07978 56.8882 7.60625C57.0888 8.13272 57.1891 8.69679 57.1891 9.29847C57.1891 10.3765 56.9259 11.2539 56.3994 11.9308C55.8854 12.5952 55.1208 13.0464 54.1055 13.2846L58.5617 19.0946Z" fill="#E65C00"/>
<path d="M43.7625 8.02387V19.1043H40.069V8.02387H37.0351V4.89573H46.7964V8.02387H43.7625Z" fill="black"/>
<path d="M34.4654 8.53266C34.0633 8.20603 33.6613 7.96734 33.2593 7.81658C32.8573 7.65327 32.4679 7.57161 32.091 7.57161C31.6136 7.57161 31.2242 7.68467 30.9226 7.9108C30.6211 8.13693 30.4704 8.43216 30.4704 8.79648C30.4704 9.04774 30.5458 9.25503 30.6965 9.41834C30.8473 9.58166 31.042 9.72613 31.2807 9.85176C31.5319 9.96482 31.8083 10.0653 32.1098 10.1533C32.4239 10.2412 32.7317 10.3354 33.0332 10.4359C34.2392 10.8379 35.1186 11.3781 35.6714 12.0565C36.2367 12.7224 36.5194 13.5955 36.5194 14.6759C36.5194 15.4045 36.3938 16.0641 36.1425 16.6545C35.9038 17.245 35.5458 17.7538 35.0684 18.1809C34.6036 18.5955 34.0257 18.9158 33.3347 19.142C32.6563 19.3807 31.8837 19.5 31.0169 19.5C29.2204 19.5 27.5558 18.9661 26.0231 17.8982L27.6061 14.9209C28.1588 15.4108 28.7053 15.7751 29.2455 16.0138C29.7857 16.2525 30.3196 16.3719 30.8473 16.3719C31.4503 16.3719 31.8963 16.2337 32.1852 15.9573C32.4867 15.6809 32.6375 15.3668 32.6375 15.0151C32.6375 14.8015 32.5998 14.6193 32.5244 14.4686C32.449 14.3053 32.3234 14.1608 32.1475 14.0352C31.9716 13.897 31.7392 13.7714 31.4503 13.6583C31.1739 13.5452 30.8347 13.4196 30.4327 13.2814C29.9553 13.1307 29.4842 12.9673 29.0194 12.7915C28.5671 12.603 28.1588 12.358 27.7945 12.0565C27.4427 11.755 27.1538 11.3781 26.9277 10.9259C26.7141 10.4611 26.6073 9.87689 26.6073 9.17337C26.6073 8.46985 26.7204 7.83543 26.9465 7.2701C27.1852 6.69221 27.5118 6.20226 27.9264 5.80025C28.3535 5.38568 28.8686 5.06533 29.4716 4.8392C30.0872 4.61307 30.7719 4.5 31.5257 4.5C32.2292 4.5 32.9641 4.6005 33.7304 4.80151C34.4968 4.98995 35.2317 5.27261 35.9352 5.6495L34.4654 8.53266Z" fill="black"/>
<path d="M24.5663 8.02387H20.1756V10.3982H24.3213V13.5264H20.1756V15.9761H24.5663V19.1043H16.4821V4.89573H24.5663V8.02387Z" fill="black"/>
<path d="M7.69347 16.24H8.50377C9.43342 16.24 10.0992 16.1206 10.5013 15.8819C10.9033 15.6432 11.1043 15.2601 11.1043 14.7324C11.1043 14.2048 10.9033 13.8216 10.5013 13.5829C10.0992 13.3442 9.43342 13.2249 8.50377 13.2249H7.69347V16.24ZM7.69347 10.4736H8.37186C9.52764 10.4736 10.1055 10.0151 10.1055 9.09799C10.1055 8.1809 9.52764 7.72236 8.37186 7.72236H7.69347V10.4736ZM4 4.89573H9.50251C10.809 4.89573 11.8015 5.2098 12.4799 5.83794C13.1583 6.46608 13.4975 7.3706 13.4975 8.55151C13.4975 9.26759 13.3656 9.86432 13.1018 10.3417C12.8505 10.8065 12.4611 11.2023 11.9334 11.5289C12.4611 11.6294 12.907 11.7864 13.2714 12C13.6482 12.201 13.9497 12.4523 14.1759 12.7538C14.4146 13.0553 14.5842 13.3945 14.6847 13.7714C14.7852 14.1482 14.8354 14.5503 14.8354 14.9774C14.8354 15.6432 14.7161 16.2337 14.4774 16.7487C14.2513 17.2638 13.9246 17.6972 13.4975 18.049C13.0829 18.4008 12.5741 18.6646 11.9711 18.8405C11.3681 19.0163 10.6897 19.1043 9.93593 19.1043H4V4.89573Z" fill="black"/>
</svg>
